 <svg width="26" height="26" viewBox="0 0 26 26" fill="none" xmlns="http://www.w3.org/2000/svg">
                            <path
                                d="M13.0003 23.8337C7.01708 23.8337 2.16699 18.9836 2.16699 13.0003C2.16699 7.01708 7.01708 2.16699 13.0003 2.16699C18.9836 2.16699 23.8337 7.01708 23.8337 13.0003C23.8337 18.9836 18.9836 23.8337 13.0003 23.8337ZM13.0003 21.667C15.2989 21.667 17.5033 20.7539 19.1286 19.1286C20.7539 17.5033 21.667 15.2989 21.667 13.0003C21.667 10.7018 20.7539 8.49738 19.1286 6.87207C17.5033 5.24675 15.2989 4.33366 13.0003 4.33366C10.7018 4.33366 8.49738 5.24675 6.87207 6.87207C5.24675 8.49738 4.33366 10.7018 4.33366 13.0003C4.33366 15.2989 5.24675 17.5033 6.87207 19.1286C8.49738 20.7539 10.7018 21.667 13.0003 21.667ZM14.0837 13.0003H18.417V15.167H11.917V7.58366H14.0837V13.0003Z"
                                fill="#fdbf00"></path>
                        </svg>